<mxfile host="app.diagrams.net" modified="2022-04-22T02:07:31.274Z" agent="5.0 (Macintosh; Intel Mac OS X 10_15_7) AppleWebKit/605.1.15 (KHTML, like Gecko) Version/15.3 Safari/605.1.15" etag="qeMt_oCtZysNhGPiyhZy" version="17.4.6" type="github">
  <diagram id="C5RBs43oDa-KdzZeNtuy" name="Page-1">
    <mxGraphModel dx="1088" dy="576" grid="1" gridSize="10" guides="1" tooltips="1" connect="1" arrows="1" fold="1" page="1" pageScale="1" pageWidth="827" pageHeight="1169" math="0" shadow="0">
      <root>
        <mxCell id="WIyWlLk6GJQsqaUBKTNV-0" />
        <mxCell id="WIyWlLk6GJQsqaUBKTNV-1" parent="WIyWlLk6GJQsqaUBKTNV-0" />
        <mxCell id="6EQiTgui6uKNV-MQ9WJ_-1" value="" style="edgeStyle=orthogonalEdgeStyle;rounded=0;orthogonalLoop=1;jettySize=auto;html=1;" edge="1" parent="WIyWlLk6GJQsqaUBKTNV-1" source="WIyWlLk6GJQsqaUBKTNV-3" target="6EQiTgui6uKNV-MQ9WJ_-0">
          <mxGeometry relative="1" as="geometry" />
        </mxCell>
        <mxCell id="WIyWlLk6GJQsqaUBKTNV-3" value="到达识字结算界面" style="rounded=1;whiteSpace=wrap;html=1;fontSize=12;glass=0;strokeWidth=1;shadow=0;" parent="WIyWlLk6GJQsqaUBKTNV-1" vertex="1">
          <mxGeometry x="160" y="80" width="120" height="40" as="geometry" />
        </mxCell>
        <mxCell id="6EQiTgui6uKNV-MQ9WJ_-3" value="" style="edgeStyle=orthogonalEdgeStyle;rounded=0;orthogonalLoop=1;jettySize=auto;html=1;" edge="1" parent="WIyWlLk6GJQsqaUBKTNV-1" source="6EQiTgui6uKNV-MQ9WJ_-0">
          <mxGeometry relative="1" as="geometry">
            <mxPoint x="360" y="205" as="targetPoint" />
          </mxGeometry>
        </mxCell>
        <mxCell id="6EQiTgui6uKNV-MQ9WJ_-4" value="否" style="edgeLabel;html=1;align=center;verticalAlign=middle;resizable=0;points=[];" vertex="1" connectable="0" parent="6EQiTgui6uKNV-MQ9WJ_-3">
          <mxGeometry x="-0.075" y="2" relative="1" as="geometry">
            <mxPoint as="offset" />
          </mxGeometry>
        </mxCell>
        <mxCell id="6EQiTgui6uKNV-MQ9WJ_-7" value="" style="edgeStyle=orthogonalEdgeStyle;rounded=0;orthogonalLoop=1;jettySize=auto;html=1;" edge="1" parent="WIyWlLk6GJQsqaUBKTNV-1" source="6EQiTgui6uKNV-MQ9WJ_-0" target="6EQiTgui6uKNV-MQ9WJ_-6">
          <mxGeometry relative="1" as="geometry" />
        </mxCell>
        <mxCell id="6EQiTgui6uKNV-MQ9WJ_-8" value="是" style="edgeLabel;html=1;align=center;verticalAlign=middle;resizable=0;points=[];" vertex="1" connectable="0" parent="6EQiTgui6uKNV-MQ9WJ_-7">
          <mxGeometry x="-0.65" relative="1" as="geometry">
            <mxPoint as="offset" />
          </mxGeometry>
        </mxCell>
        <mxCell id="6EQiTgui6uKNV-MQ9WJ_-0" value="有装扮道具" style="rhombus;whiteSpace=wrap;html=1;" vertex="1" parent="WIyWlLk6GJQsqaUBKTNV-1">
          <mxGeometry x="160" y="150" width="120" height="110" as="geometry" />
        </mxCell>
        <mxCell id="6EQiTgui6uKNV-MQ9WJ_-5" value="显示无装扮弹窗的结算" style="rounded=1;whiteSpace=wrap;html=1;" vertex="1" parent="WIyWlLk6GJQsqaUBKTNV-1">
          <mxGeometry x="360" y="175" width="110" height="55" as="geometry" />
        </mxCell>
        <mxCell id="6EQiTgui6uKNV-MQ9WJ_-17" value="" style="edgeStyle=orthogonalEdgeStyle;rounded=0;orthogonalLoop=1;jettySize=auto;html=1;" edge="1" parent="WIyWlLk6GJQsqaUBKTNV-1" source="6EQiTgui6uKNV-MQ9WJ_-6" target="6EQiTgui6uKNV-MQ9WJ_-16">
          <mxGeometry relative="1" as="geometry" />
        </mxCell>
        <mxCell id="6EQiTgui6uKNV-MQ9WJ_-37" value="" style="edgeStyle=orthogonalEdgeStyle;rounded=0;orthogonalLoop=1;jettySize=auto;html=1;fontSize=12;" edge="1" parent="WIyWlLk6GJQsqaUBKTNV-1" source="6EQiTgui6uKNV-MQ9WJ_-6" target="6EQiTgui6uKNV-MQ9WJ_-36">
          <mxGeometry relative="1" as="geometry" />
        </mxCell>
        <mxCell id="6EQiTgui6uKNV-MQ9WJ_-45" value="否" style="edgeLabel;html=1;align=center;verticalAlign=middle;resizable=0;points=[];fontSize=12;" vertex="1" connectable="0" parent="6EQiTgui6uKNV-MQ9WJ_-37">
          <mxGeometry x="-0.4" y="2" relative="1" as="geometry">
            <mxPoint as="offset" />
          </mxGeometry>
        </mxCell>
        <mxCell id="6EQiTgui6uKNV-MQ9WJ_-6" value="第一次学习" style="rhombus;whiteSpace=wrap;html=1;" vertex="1" parent="WIyWlLk6GJQsqaUBKTNV-1">
          <mxGeometry x="160" y="300" width="120" height="110" as="geometry" />
        </mxCell>
        <mxCell id="6EQiTgui6uKNV-MQ9WJ_-27" value="是" style="edgeStyle=orthogonalEdgeStyle;rounded=0;orthogonalLoop=1;jettySize=auto;html=1;" edge="1" parent="WIyWlLk6GJQsqaUBKTNV-1" source="6EQiTgui6uKNV-MQ9WJ_-12" target="6EQiTgui6uKNV-MQ9WJ_-26">
          <mxGeometry relative="1" as="geometry" />
        </mxCell>
        <mxCell id="6EQiTgui6uKNV-MQ9WJ_-33" value="" style="edgeStyle=orthogonalEdgeStyle;rounded=0;orthogonalLoop=1;jettySize=auto;html=1;fontSize=12;" edge="1" parent="WIyWlLk6GJQsqaUBKTNV-1" source="6EQiTgui6uKNV-MQ9WJ_-12" target="6EQiTgui6uKNV-MQ9WJ_-32">
          <mxGeometry relative="1" as="geometry" />
        </mxCell>
        <mxCell id="6EQiTgui6uKNV-MQ9WJ_-57" value="是" style="edgeLabel;html=1;align=center;verticalAlign=middle;resizable=0;points=[];fontSize=12;" vertex="1" connectable="0" parent="6EQiTgui6uKNV-MQ9WJ_-33">
          <mxGeometry x="-0.4" y="4" relative="1" as="geometry">
            <mxPoint as="offset" />
          </mxGeometry>
        </mxCell>
        <mxCell id="6EQiTgui6uKNV-MQ9WJ_-12" value="获取物品是否&lt;br&gt;稀有装扮&lt;br&gt;第一个部件" style="rhombus;whiteSpace=wrap;html=1;" vertex="1" parent="WIyWlLk6GJQsqaUBKTNV-1">
          <mxGeometry x="550" y="300" width="140" height="115" as="geometry" />
        </mxCell>
        <mxCell id="6EQiTgui6uKNV-MQ9WJ_-18" value="" style="edgeStyle=orthogonalEdgeStyle;rounded=0;orthogonalLoop=1;jettySize=auto;html=1;" edge="1" parent="WIyWlLk6GJQsqaUBKTNV-1" source="6EQiTgui6uKNV-MQ9WJ_-16" target="6EQiTgui6uKNV-MQ9WJ_-12">
          <mxGeometry relative="1" as="geometry" />
        </mxCell>
        <mxCell id="6EQiTgui6uKNV-MQ9WJ_-19" value="是" style="edgeLabel;html=1;align=center;verticalAlign=middle;resizable=0;points=[];" vertex="1" connectable="0" parent="6EQiTgui6uKNV-MQ9WJ_-18">
          <mxGeometry x="-0.1714" y="2" relative="1" as="geometry">
            <mxPoint as="offset" />
          </mxGeometry>
        </mxCell>
        <mxCell id="6EQiTgui6uKNV-MQ9WJ_-29" value="" style="edgeStyle=orthogonalEdgeStyle;rounded=0;orthogonalLoop=1;jettySize=auto;html=1;fontSize=8;" edge="1" parent="WIyWlLk6GJQsqaUBKTNV-1" source="6EQiTgui6uKNV-MQ9WJ_-16" target="6EQiTgui6uKNV-MQ9WJ_-28">
          <mxGeometry relative="1" as="geometry" />
        </mxCell>
        <mxCell id="6EQiTgui6uKNV-MQ9WJ_-31" value="否" style="edgeLabel;html=1;align=center;verticalAlign=middle;resizable=0;points=[];fontSize=12;" vertex="1" connectable="0" parent="6EQiTgui6uKNV-MQ9WJ_-29">
          <mxGeometry x="-0.3714" y="-2" relative="1" as="geometry">
            <mxPoint as="offset" />
          </mxGeometry>
        </mxCell>
        <mxCell id="6EQiTgui6uKNV-MQ9WJ_-16" value="是稀有道具" style="rhombus;whiteSpace=wrap;html=1;" vertex="1" parent="WIyWlLk6GJQsqaUBKTNV-1">
          <mxGeometry x="360" y="300" width="120" height="110" as="geometry" />
        </mxCell>
        <mxCell id="6EQiTgui6uKNV-MQ9WJ_-26" value="显示简单稀有道具弹窗" style="rounded=1;whiteSpace=wrap;html=1;" vertex="1" parent="WIyWlLk6GJQsqaUBKTNV-1">
          <mxGeometry x="560" y="450" width="120" height="60" as="geometry" />
        </mxCell>
        <mxCell id="6EQiTgui6uKNV-MQ9WJ_-28" value="显示普通道具弹窗" style="rounded=1;whiteSpace=wrap;html=1;" vertex="1" parent="WIyWlLk6GJQsqaUBKTNV-1">
          <mxGeometry x="360" y="450" width="120" height="60" as="geometry" />
        </mxCell>
        <mxCell id="6EQiTgui6uKNV-MQ9WJ_-32" value="显示复杂稀有道具弹窗" style="rounded=1;whiteSpace=wrap;html=1;" vertex="1" parent="WIyWlLk6GJQsqaUBKTNV-1">
          <mxGeometry x="740" y="327.5" width="120" height="60" as="geometry" />
        </mxCell>
        <mxCell id="6EQiTgui6uKNV-MQ9WJ_-42" value="" style="edgeStyle=orthogonalEdgeStyle;rounded=0;orthogonalLoop=1;jettySize=auto;html=1;fontSize=12;" edge="1" parent="WIyWlLk6GJQsqaUBKTNV-1" source="6EQiTgui6uKNV-MQ9WJ_-36" target="6EQiTgui6uKNV-MQ9WJ_-41">
          <mxGeometry relative="1" as="geometry" />
        </mxCell>
        <mxCell id="6EQiTgui6uKNV-MQ9WJ_-53" value="是" style="edgeLabel;html=1;align=center;verticalAlign=middle;resizable=0;points=[];fontSize=12;" vertex="1" connectable="0" parent="6EQiTgui6uKNV-MQ9WJ_-42">
          <mxGeometry x="-0.35" y="1" relative="1" as="geometry">
            <mxPoint as="offset" />
          </mxGeometry>
        </mxCell>
        <mxCell id="6EQiTgui6uKNV-MQ9WJ_-47" value="" style="edgeStyle=orthogonalEdgeStyle;rounded=0;orthogonalLoop=1;jettySize=auto;html=1;fontSize=12;" edge="1" parent="WIyWlLk6GJQsqaUBKTNV-1" source="6EQiTgui6uKNV-MQ9WJ_-36" target="6EQiTgui6uKNV-MQ9WJ_-46">
          <mxGeometry relative="1" as="geometry" />
        </mxCell>
        <mxCell id="6EQiTgui6uKNV-MQ9WJ_-48" value="否" style="edgeLabel;html=1;align=center;verticalAlign=middle;resizable=0;points=[];fontSize=12;" vertex="1" connectable="0" parent="6EQiTgui6uKNV-MQ9WJ_-47">
          <mxGeometry x="-0.3905" relative="1" as="geometry">
            <mxPoint as="offset" />
          </mxGeometry>
        </mxCell>
        <mxCell id="6EQiTgui6uKNV-MQ9WJ_-36" value="免费用户并且此课&lt;br&gt;是免费的最后一课" style="rhombus;whiteSpace=wrap;html=1;" vertex="1" parent="WIyWlLk6GJQsqaUBKTNV-1">
          <mxGeometry x="160" y="530" width="120" height="110" as="geometry" />
        </mxCell>
        <mxCell id="6EQiTgui6uKNV-MQ9WJ_-50" value="" style="edgeStyle=orthogonalEdgeStyle;rounded=0;orthogonalLoop=1;jettySize=auto;html=1;fontSize=12;" edge="1" parent="WIyWlLk6GJQsqaUBKTNV-1" source="6EQiTgui6uKNV-MQ9WJ_-41" target="6EQiTgui6uKNV-MQ9WJ_-49">
          <mxGeometry relative="1" as="geometry" />
        </mxCell>
        <mxCell id="6EQiTgui6uKNV-MQ9WJ_-52" value="是" style="edgeLabel;html=1;align=center;verticalAlign=middle;resizable=0;points=[];fontSize=12;" vertex="1" connectable="0" parent="6EQiTgui6uKNV-MQ9WJ_-50">
          <mxGeometry x="-0.1" y="-3" relative="1" as="geometry">
            <mxPoint as="offset" />
          </mxGeometry>
        </mxCell>
        <mxCell id="6EQiTgui6uKNV-MQ9WJ_-41" value="稀有道具" style="rhombus;whiteSpace=wrap;html=1;" vertex="1" parent="WIyWlLk6GJQsqaUBKTNV-1">
          <mxGeometry x="360" y="530" width="120" height="110" as="geometry" />
        </mxCell>
        <mxCell id="6EQiTgui6uKNV-MQ9WJ_-46" value="显示无装扮弹窗的结算" style="rounded=1;whiteSpace=wrap;html=1;" vertex="1" parent="WIyWlLk6GJQsqaUBKTNV-1">
          <mxGeometry x="160" y="690" width="120" height="60" as="geometry" />
        </mxCell>
        <mxCell id="6EQiTgui6uKNV-MQ9WJ_-49" value="&lt;span&gt;显示简单稀有道具弹窗&lt;/span&gt;" style="rounded=1;whiteSpace=wrap;html=1;" vertex="1" parent="WIyWlLk6GJQsqaUBKTNV-1">
          <mxGeometry x="560" y="555" width="120" height="60" as="geometry" />
        </mxCell>
        <mxCell id="6EQiTgui6uKNV-MQ9WJ_-55" value="" style="endArrow=classic;html=1;rounded=0;fontSize=12;exitX=0.5;exitY=1;exitDx=0;exitDy=0;entryX=1;entryY=0.5;entryDx=0;entryDy=0;" edge="1" parent="WIyWlLk6GJQsqaUBKTNV-1" source="6EQiTgui6uKNV-MQ9WJ_-41" target="6EQiTgui6uKNV-MQ9WJ_-46">
          <mxGeometry width="50" height="50" relative="1" as="geometry">
            <mxPoint x="460" y="640" as="sourcePoint" />
            <mxPoint x="510" y="590" as="targetPoint" />
            <Array as="points">
              <mxPoint x="420" y="720" />
            </Array>
          </mxGeometry>
        </mxCell>
        <mxCell id="6EQiTgui6uKNV-MQ9WJ_-56" value="否" style="edgeLabel;html=1;align=center;verticalAlign=middle;resizable=0;points=[];fontSize=12;" vertex="1" connectable="0" parent="6EQiTgui6uKNV-MQ9WJ_-55">
          <mxGeometry x="-0.7727" y="-1" relative="1" as="geometry">
            <mxPoint as="offset" />
          </mxGeometry>
        </mxCell>
      </root>
    </mxGraphModel>
  </diagram>
</mxfile>
